# xmcd
#
# Track frame offsets: 
#        150
#        11954
#        22912
#        33250
#        42615
#        54172
#        65403
#        77979
#        87957
#        97424
#        109707
#        125742
#        137723
#        148981
#
# Disc length: 2128 seconds
#
# Revision: 0
# Processed by: cddbd v1.5.1PL0 Copyright (c) Steve Scherf et al.
# Submitted via: ExactAudioCopy v0.95b3
#
DISCID=ca084e0e
DTITLE=Croonin' Kurt And His Hi' Geared Combo - Low Down Swing
DYEAR=1900
DGENRE=Rock and Roll
TTITLE0=Honkey Tonkin' Rhythm
TTITLE1=Tennessee Rock
TTITLE2=Texas Swing
TTITLE3=Date On The Corner
TTITLE4=Blues I Can't Hide
TTITLE5=Lovin' Man
TTITLE6=Who's Cryin' Sweet Papa Now
TTITLE7=The Right Key But The Wrong Keyhole
TTITLE8=Rock And Roll Jump Jive Tonight
TTITLE9=That Old Shotgun
TTITLE10=Low Down Swing
TTITLE11=Min'in' The Blues
TTITLE12=Hot Shot Boogie
TTITLE13=Hi' Geared Rhythm
EXTD=
EXTT0=
EXTT1=
EXTT2=
EXTT3=
EXTT4=
EXTT5=
EXTT6=
EXTT7=
EXTT8=
EXTT9=
EXTT10=
EXTT11=
EXTT12=
EXTT13=
PLAYORDER=
